<?xml version="1.0" encoding="UTF-8" standalone="no"?>
<!-- Created with Inkscape (http://www.inkscape.org/) -->

<svg
   width="999.99036"
   height="999.99036"
   viewBox="0 0 264.58078 264.58078"
   version="1.1"
   id="svg1"
   xml:space="preserve"
   inkscape:export-filename="bitmap.svg"
   inkscape:export-xdpi="96"
   inkscape:export-ydpi="96"
   xmlns:inkscape="http://www.inkscape.org/namespaces/inkscape"
   xmlns:sodipodi="http://sodipodi.sourceforge.net/DTD/sodipodi-0.dtd"
   xmlns="http://www.w3.org/2000/svg"
   xmlns:svg="http://www.w3.org/2000/svg"><sodipodi:namedview
     id="namedview1"
     pagecolor="#ffffff"
     bordercolor="#000000"
     borderopacity="0.25"
     inkscape:showpageshadow="2"
     inkscape:pageopacity="0.0"
     inkscape:pagecheckerboard="0"
     inkscape:deskcolor="#d1d1d1"
     inkscape:document-units="mm"><inkscape:page
       x="0"
       y="0"
       width="264.58078"
       height="264.58078"
       id="page2"
       margin="0"
       bleed="0" /></sodipodi:namedview><defs
     id="defs1"><style
       type="text/css"
       id="style1">.cls-1{fill:url(#radial-gradient);}.cls-2{fill:none;}.cls-3{fill:url(#radial-gradient-2);}.cls-4{fill:url(#radial-gradient-3);}.cls-5{clip-path:url(#clip-path);}.cls-6{fill:url(#radial-gradient-5);}.cls-7{clip-path:url(#clip-path-2);}.cls-8{fill:url(#radial-gradient-6);}.cls-9{fill:url(#radial-gradient-7);}</style></defs><g
     inkscape:label="Layer 1"
     inkscape:groupmode="layer"
     id="layer1"><g
       id="g1"
       transform="scale(0.26645062)"><g
         id="layer5"
         transform="translate(2.7555185e-5,-2.2748925e-5)"><g
           id="g19"
           transform="matrix(13.227421,0,0,13.227421,0.46292227,0.46297258)"><circle
             cx="37.5"
             cy="37.5"
             fill="#302e31"
             r="35.799999"
             stroke="#ffffff"
             stroke-width="3.47"
             id="circle1" /><path
             d="M 19.3,18.7 C 20.4,13.39 24,8.6 28.84,6.2 27.998,7.055 26.98,7.71 26.2,8.64 c -3.19,3.44 -4.63,8.42 -3.75,13 1.11,6.99 7.68,12.7 14.8,12.6 5.52,0.247 10.9,-2.93 13.6,-7.72 5.78,0.196 11.4,3.18 14.7,7.97 1.69,2.5 3.01,5.43 3.1,8.48 -1.07,-4.05 -3.76,-7.65 -7.43,-9.68 -3.55,-2 -7.91,-2.51 -11.8,-1.33 -4.88,1.4 -8.91,5.39 -10.3,10.3 -1.18,3.91 -0.675,8.22 1.18,11.8 -2.58,4.47 -7.24,7.66 -12.3,8.62 -3.89,0.816 -7.98,0.186 -11.6,-1.45 3.24,0.945 6.76,1.11 9.98,-0.035 4.32,-1.43 7.89,-4.9 9.46,-9.18 1.74,-4.66 1.08,-10.2 -1.85,-14.2 -2.19,-3.15 -5.64,-5.37 -9.39,-6.16 -1.19,-0.212 -2.39,-0.308 -3.59,-0.418 -1.91,-3.85 -2.61,-8.32 -1.65,-12.5 z"
             fill="#c4c2c4"
             id="path1" /></g></g><g
         id="layer3"
         transform="matrix(0.64656215,0,0,0.64656255,837.6886,837.68868)"><circle
           style="fill:#ffffff"
           id="path19"
           cx="0"
           cy="0"
           r="240.14923"
           transform="scale(-1)" /><g
           id="g849"
           transform="matrix(0.66871373,0,0,0.66666667,-163.33525,-183.90805)"><path
             class="st0"
             d="M 488.50575,386.2069 V 128.73563 L 265.51724,0 v 98.850575 l 87.35632,50.574715 c 3.44828,2.29885 3.44828,6.89655 0,8.04597 l -103.44827,59.77012 c -3.44828,2.29885 -6.89655,1.14942 -9.1954,0 L 136.78161,157.47126 c -3.44828,-1.14942 -3.44828,-6.89655 0,-8.04597 L 224.13793,98.850575 V 0 L 0,128.73563 v 257.47127 -1.14943 1.14943 L 85.057471,336.78161 V 235.63218 c 0,-3.44827 4.597701,-5.74712 6.896552,-4.5977 L 195.4023,290.8046 c 3.44827,2.29885 4.5977,4.5977 4.5977,8.04597 V 418.3908 c 0,3.44828 -4.5977,5.74713 -6.89655,4.59771 L 105.74713,372.41379 20.689655,421.83908 243.67816,551.72414 466.66667,422.98851 381.6092,373.56322 294.25287,424.13793 c -3.44827,2.29885 -6.89655,0 -6.89655,-4.5977 V 300 c 0,-3.44828 2.29885,-6.89655 4.5977,-8.04598 L 395.4023,232.18391 c 3.44827,-2.29885 6.89655,0 6.89655,4.5977 v 101.14942 z"
             id="path6"
             style="display:inline;fill:#000000;stroke-width:11.4943" /><path
             d="M 243.67816,551.72414 466.66667,422.98851 381.6092,373.56322 294.25287,424.13793 c -3.44827,2.29885 -6.89655,0 -6.89655,-4.5977 V 300 c 0,-3.44828 2.29885,-6.89655 4.5977,-8.04598 L 395.4023,232.18391 c 3.44827,-2.29885 6.89655,0 6.89655,4.5977 v 101.14942 l 85.05747,49.42529 V 128.73563 L 243.67816,270.11494 Z"
             id="path8"
             style="stroke-width:11.4943" /><path
             d="m 265.51724,0 v 98.850575 l 87.35632,50.574715 c 3.44828,2.29885 3.44828,6.89655 0,8.04597 l -103.44827,59.77012 c -3.44828,2.29885 -6.89655,1.14942 -9.1954,0 L 136.78161,157.47126 c -3.44828,-1.14942 -3.44828,-6.89655 0,-8.04597 L 224.13793,98.850575 V 0 L 0,128.73563 243.67816,270.11494 487.35632,128.73563 Z"
             fill="#808080"
             id="path10-4"
             style="stroke-width:11.4943" /><path
             class="st0"
             d="M 194.25287,424.13793 106.89655,373.56322 21.83908,422.98851 244.82759,551.72414 V 270.11494 L 0,128.73563 v 257.47127 -1.14943 1.14943 L 85.057471,336.78161 V 235.63218 c 0,-3.44827 4.597701,-5.74712 6.896552,-4.5977 L 195.4023,290.8046 c 3.44827,2.29885 4.5977,4.5977 4.5977,8.04597 V 418.3908 c 1.14943,4.59771 -2.29885,8.04598 -5.74713,5.74713 z"
             id="path12"
             style="stroke-width:11.4943" /></g></g></g></g><style
     id="style2">.st0{fill:#4c4c4c}</style><style
     id="style2-9">.st0{fill:#4c4c4c}</style></svg>
